<?xml version="1.0" encoding="utf-8"?>
<!-- Generator: Adobe Illustrator 21.0.0, SVG Export Plug-In . SVG Version: 6.00 Build 0)  -->
<svg version="1.1" id="Layer_1" xmlns="http://www.w3.org/2000/svg" xmlns:xlink="http://www.w3.org/1999/xlink" x="0px" y="0px"
	 viewBox="0 0 46 46" style="enable-background:new 0 0 46 46;" xml:space="preserve">
<style type="text/css">
	.st0{clip-path:url(#SVGID_2_);}
	.st1{clip-path:url(#SVGID_4_);}
</style>
<g>
	<defs>
		<path id="SVGID_1_" d="M22.2,28.7L8.6,44.5C8,45.1,8.4,46,9.2,46h27.5c0.8,0,1.2-0.9,0.7-1.5L23.8,28.7c-0.2-0.2-0.5-0.4-0.8-0.4
			C22.7,28.4,22.4,28.5,22.2,28.7"/>
	</defs>
	<clipPath id="SVGID_2_">
		<use xlink:href="#SVGID_1_"  style="overflow:visible;"/>
	</clipPath>
	<rect x="1.9" y="22" class="st0" width="42.1" height="30.4"/>
</g>
<g>
	<defs>
		<path id="SVGID_3_" d="M12.8,23c0,3.1,1.3,5.8,3.5,7.7c0.1,0.1,0.2,0.2,0.4,0.3c0.1,0.1,0.3,0.1,0.4,0c0.1-0.1,0.2-0.2,0.2-0.3
			c0.5-0.6,0.8-1,1.1-1.3c0,0,0,0,0,0c0.1-0.1,0.1-0.2,0-0.3c0,0,0,0,0,0c-1.8-1.4-3-3.6-3-6.1c0-4.2,3.4-7.7,7.7-7.7
			c4.2,0,7.7,3.4,7.7,7.7c0,2.5-1.2,4.7-3,6.1c-0.1,0.1-0.1,0.2,0,0.3c0,0,0,0,0,0c0,0,0,0,0,0c0.5,0.6,0.8,1,1.1,1.3
			c0.1,0.1,0.1,0.2,0.2,0.3c0.1,0.1,0.2,0.1,0.4,0c0.2-0.1,0.3-0.2,0.4-0.3c2.1-1.9,3.5-4.6,3.5-7.7c0-5.6-4.6-10.2-10.2-10.2
			S12.8,17.4,12.8,23 M6.4,23c0,5.1,2.3,9.7,6,12.8c0,0,0.1,0.1,0.1,0.1h0c0.1,0.1,0.3,0.1,0.4,0c0,0,0,0,0-0.1
			c0.5-0.6,0.9-1,1.1-1.3c0-0.1,0.1-0.1,0.2-0.2c0.1-0.1,0.1-0.2,0-0.3c0,0,0,0,0,0c0,0-0.1-0.1-0.1-0.1c-3.1-2.6-5.1-6.5-5.1-10.8
			c0-7.8,6.3-14.1,14.1-14.1c7.8,0,14.1,6.3,14.1,14.1c0,4.3-2,8.2-5.1,10.8c0,0-0.1,0.1-0.2,0.2c-0.1,0.1-0.1,0.2,0,0.3
			c0,0,0,0,0,0c0.1,0.1,0.1,0.2,0.2,0.2c0.3,0.3,0.6,0.8,1.1,1.3c0,0,0.1,0.1,0.1,0.1h0c0.1,0.1,0.2,0.1,0.3,0
			c0.1,0,0.1-0.1,0.1-0.1c3.7-3,6-7.6,6-12.8c0-9.2-7.4-16.6-16.6-16.6S6.4,13.8,6.4,23 M0,23c0,7.1,3.2,13.4,8.2,17.6
			c0,0,0.1,0,0.1,0.1c0.1,0.1,0.3,0.1,0.4,0c0,0,0.1-0.1,0.1-0.1c0.5-0.6,0.9-1.1,1.2-1.4c0,0,0-0.1,0.1-0.1c0.1-0.1,0.1-0.3,0-0.4
			c0,0,0,0,0,0c-0.1,0-0.1-0.1-0.1-0.1C5.4,34.9,2.6,29.3,2.6,23C2.6,11.7,11.7,2.6,23,2.6S43.4,11.7,43.4,23c0,6.3-2.9,12-7.4,15.7
			c0,0,0,0-0.1,0.1h0c-0.1,0.1-0.1,0.2,0,0.3c0,0,0,0,0,0c0,0,0,0,0.1,0.1c0.3,0.4,0.7,0.9,1.3,1.5c0,0,0,0,0,0
			c0.1,0.1,0.2,0.1,0.3,0c0,0,0,0,0,0C42.8,36.5,46,30.1,46,23C46,10.3,35.7,0,23,0C10.3,0,0,10.3,0,23"/>
	</defs>
	<clipPath id="SVGID_4_">
		<use xlink:href="#SVGID_3_"  style="overflow:visible;"/>
	</clipPath>
	<rect x="-6.4" y="-6.4" class="st1" width="58.8" height="53.6"/>
</g>
</svg>
