<?xml version="1.0" standalone="no"?>
<!DOCTYPE svg PUBLIC "-//W3C//DTD SVG 20010904//EN"
 "http://www.w3.org/TR/2001/REC-SVG-20010904/DTD/svg10.dtd">
<svg version="1.0" xmlns="http://www.w3.org/2000/svg"
 width="817.000000pt" height="817.000000pt" viewBox="0 0 817.000000 817.000000"
 preserveAspectRatio="xMidYMid meet">
<metadata>
Created by potrace 1.11, written by Peter Selinger 2001-2013
</metadata>
<g transform="translate(0.000000,817.000000) scale(0.100000,-0.100000)"
fill="#000000" stroke="none">
<path d="M0 4085 l0 -4085 4085 0 4085 0 0 4085 0 4085 -4085 0 -4085 0 0
-4085z m4329 3015 c440 -27 844 -137 1221 -331 227 -118 426 -254 625 -430
413 -364 694 -767 878 -1259 127 -338 180 -662 180 -1090 0 -252 -9 -366 -44
-575 -128 -769 -579 -1473 -1254 -1962 -389 -282 -846 -466 -1335 -537 -385
-56 -873 -37 -1249 50 -103 24 -437 137 -531 180 -129 58 -344 179 -445 249
-653 453 -1103 1082 -1276 1780 -16 66 -33 136 -39 155 -5 19 -19 100 -32 180
-21 130 -23 179 -23 480 0 372 6 434 71 720 131 576 397 1051 830 1484 385
386 808 641 1292 782 252 73 455 109 682 121 63 3 117 7 119 9 8 7 164 4 330
-6z"/>
<path d="M2860 6701 c-264 -115 -438 -213 -609 -342 -333 -252 -638 -625 -787
-961 -71 -160 -164 -445 -164 -504 0 -29 10 -10 61 118 200 497 565 962 1049
1338 147 114 403 285 533 355 48 26 87 51 87 56 0 14 -6 12 -170 -60z"/>
<path d="M3010 6531 c-294 -110 -540 -259 -775 -470 -368 -329 -614 -729 -704
-1145 -24 -110 -25 -116 -11 -116 6 0 10 7 10 16 0 8 21 68 46 132 178 456
500 869 954 1222 131 102 360 256 492 331 43 24 78 47 78 52 0 11 -8 9 -90
-22z"/>
<path d="M3040 6311 c-311 -129 -500 -253 -734 -481 -251 -245 -403 -478 -504
-772 -41 -119 -88 -315 -78 -325 9 -9 8 -9 49 117 66 202 184 425 325 612 104
139 329 368 482 491 134 108 387 279 513 347 42 23 77 46 77 51 0 13 -5 12
-130 -40z"/>
<path d="M3155 6121 c-128 -54 -288 -136 -370 -189 -206 -133 -426 -339 -558
-523 -123 -171 -228 -414 -276 -639 -23 -105 -25 -120 -12 -120 5 0 12 17 16
38 20 111 121 329 225 490 123 190 346 433 554 603 119 97 354 264 449 319 68
40 92 61 70 60 -5 0 -48 -18 -98 -39z"/>
<path d="M3209 5911 c-263 -108 -457 -238 -639 -427 -210 -218 -331 -429 -394
-685 -28 -114 -45 -276 -29 -266 6 4 13 26 16 50 10 71 74 254 127 363 163
332 397 586 760 828 69 46 162 103 207 127 46 24 83 47 83 52 0 11 -8 9 -131
-42z"/>
<path d="M3345 5731 c-95 -34 -278 -120 -358 -168 -157 -95 -326 -253 -421
-397 -87 -131 -159 -312 -196 -491 -21 -100 -27 -180 -11 -140 5 11 18 56 30
100 66 240 262 524 511 740 109 95 332 257 435 317 41 24 74 46 75 51 0 10 -7
8 -65 -12z"/>
<path d="M3406 5524 c-190 -66 -348 -165 -492 -309 -155 -155 -237 -282 -303
-470 -35 -99 -69 -301 -53 -317 6 -6 12 9 17 44 19 137 94 309 203 462 122
172 416 428 635 552 120 68 118 82 -7 38z"/>
<path d="M3434 5306 c-197 -83 -316 -158 -430 -271 -161 -160 -243 -360 -244
-597 0 -52 4 -88 10 -88 6 0 10 15 10 33 0 45 35 166 71 245 109 241 385 534
622 662 76 41 101 61 75 59 -7 0 -58 -19 -114 -43z"/>
<path d="M3514 5097 c-153 -66 -258 -132 -343 -217 -141 -141 -199 -277 -208
-492 -7 -144 7 -173 26 -55 51 307 244 564 564 749 48 28 87 52 87 54 0 10
-34 0 -126 -39z"/>
<path d="M3890 5054 c-254 -55 -453 -180 -606 -383 -130 -172 -190 -337 -201
-556 -11 -218 34 -411 133 -577 57 -94 200 -250 289 -314 82 -58 232 -129 330
-156 68 -18 106 -22 260 -22 203 0 277 14 412 79 226 107 428 308 524 522 102
228 109 533 18 783 -86 236 -327 480 -564 571 -127 49 -240 69 -395 68 -76 0
-163 -7 -200 -15z m292 -894 c33 -36 46 -106 26 -147 -28 -59 -130 -80 -192
-39 -51 33 -54 152 -5 194 45 39 130 35 171 -8z m668 -753 c0 -2 -12 -14 -27
-28 l-28 -24 24 28 c23 25 31 32 31 24z m-180 -152 c0 -2 -10 -9 -22 -15 -22
-11 -22 -10 -4 4 21 17 26 19 26 11z m-1025 -43 c-3 -3 -11 0 -18 7 -9 10 -8
11 6 5 10 -3 15 -9 12 -12z m612 -118 c-3 -3 -12 -4 -19 -1 -8 3 -5 6 6 6 11
1 17 -2 13 -5z m-99 -11 c-15 -2 -42 -2 -60 0 -18 2 -6 4 27 4 33 0 48 -2 33
-4z"/>
<path d="M1490 4750 c0 -5 5 -10 10 -10 6 0 10 5 10 10 0 6 -4 10 -10 10 -5 0
-10 -4 -10 -10z"/>
<path d="M5208 3727 c-5 -10 -8 -31 -8 -47 0 -46 -48 -199 -90 -287 -89 -185
-281 -368 -498 -477 -30 -15 -52 -30 -49 -32 7 -8 151 43 243 86 168 77 285
184 350 315 53 109 65 173 62 326 -2 74 -6 126 -10 116z"/>
<path d="M5418 3690 c-4 -8 -9 -42 -12 -74 -14 -126 -99 -328 -189 -445 -73
-94 -176 -199 -276 -279 -93 -75 -287 -202 -308 -202 -6 0 -13 -6 -16 -14 -10
-25 233 82 339 149 71 46 214 175 263 239 110 142 183 321 202 494 10 99 9
163 -3 132z m-618 -935 c-14 -8 -29 -14 -35 -14 -5 0 1 6 15 14 14 8 30 14 35
14 6 0 -1 -6 -15 -14z"/>
<path d="M5590 3445 c0 -29 -60 -171 -101 -241 -93 -154 -263 -339 -455 -491
-94 -74 -287 -207 -320 -220 -8 -3 -14 -10 -14 -15 0 -6 8 -7 18 -3 9 4 55 22
102 40 220 84 377 189 517 348 109 125 185 273 245 481 31 110 32 116 18 116
-5 0 -10 -7 -10 -15z m-270 -579 c0 -2 -8 -10 -17 -17 -16 -13 -17 -12 -4 4
13 16 21 21 21 13z m-90 -9 c0 -2 -15 -16 -32 -33 l-33 -29 29 33 c28 30 36
37 36 29z m-30 -109 c-79 -69 -269 -181 -364 -215 -49 -17 -44 -12 61 61 45
32 95 59 110 62 15 2 39 7 53 10 32 7 122 73 115 85 -4 5 0 6 8 3 8 -3 20 2
27 11 7 8 15 15 19 15 3 -1 -10 -15 -29 -32z m-95 -46 c-4 -4 -10 -1 -12 6 -4
9 -13 6 -36 -11 -18 -13 -39 -27 -47 -32 -24 -13 0 10 45 44 34 25 41 27 48
15 5 -9 6 -19 2 -22z"/>
<path d="M5817 3450 c-3 -8 -10 -37 -17 -65 -16 -69 -75 -217 -118 -294 -100
-180 -293 -394 -497 -550 -108 -83 -298 -208 -362 -239 -18 -9 -33 -19 -33
-24 0 -9 61 18 245 108 410 201 705 567 780 969 15 78 16 134 2 95z m-237
-595 c-17 -25 -33 -45 -36 -45 -3 0 9 20 26 45 17 25 33 45 36 45 3 0 -9 -20
-26 -45z m-66 -46 c-10 -4 -15 -8 -10 -8 12 -1 -14 -31 -28 -31 -6 0 -4 5 4
10 8 5 11 10 6 10 -5 0 -1 9 9 20 10 11 22 17 28 13 6 -4 3 -10 -9 -14z m-100
-139 c-134 -132 -350 -278 -472 -320 -23 -8 -24 -8 -8 3 223 144 341 233 461
349 28 26 60 49 73 51 12 2 28 9 34 15 7 7 14 12 18 12 3 0 -45 -50 -106 -110z"/>
<path d="M6237 3343 c-2 -4 -10 -26 -17 -47 -19 -58 -132 -305 -176 -383 -53
-95 -204 -318 -260 -383 -105 -122 -306 -306 -411 -375 -24 -15 -43 -32 -43
-36 0 -26 322 249 424 362 60 66 207 262 249 334 22 35 38 51 50 49 9 -1 17 3
17 9 0 8 3 8 11 0 13 -13 -76 -171 -155 -276 -62 -82 -187 -210 -288 -295 -49
-40 -88 -76 -88 -79 0 -3 8 1 18 9 9 8 59 49 109 92 160 134 312 318 403 488
58 110 126 300 151 424 18 94 21 132 6 107z m-88 -342 c-6 -18 -13 -30 -15
-28 -2 2 1 18 7 36 6 18 13 30 15 28 2 -2 -1 -18 -7 -36z m-28 -68 c-12 -20
-14 -14 -5 12 4 9 9 14 11 11 3 -2 0 -13 -6 -23z m-52 -28 c-12 -19 -23 -35
-25 -35 -2 0 4 16 13 35 9 19 20 35 25 35 4 0 -2 -16 -13 -35z m41 -4 c0 -9
-20 -37 -20 -29 0 3 -2 13 -5 21 -4 8 0 14 10 14 8 0 15 -3 15 -6z"/>
<path d="M5986 3263 c-23 -73 -105 -237 -164 -328 -168 -262 -471 -568 -709
-718 -67 -42 -88 -64 -25 -26 193 117 448 345 602 539 29 36 55 67 58 70 4 3
20 24 36 48 16 23 31 42 33 42 5 0 -3 -15 -29 -52 -23 -33 -8 -38 16 -5 15 20
15 20 0 -12 -21 -44 -93 -155 -133 -206 -75 -94 -232 -240 -328 -306 -57 -39
-103 -72 -103 -75 0 -9 47 20 145 92 224 161 428 427 536 695 26 65 99 280 99
291 0 4 -4 8 -8 8 -5 0 -16 -26 -26 -57z"/>
<path d="M6440 3228 c-161 -425 -328 -686 -630 -988 -72 -72 -91 -94 -50 -59
182 157 419 456 527 666 21 40 46 74 56 77 21 5 19 -5 -23 -106 -84 -198 -258
-434 -478 -647 -73 -70 -76 -75 -22 -29 36 30 112 107 170 170 238 259 390
544 451 844 20 102 20 127 -1 72z m-56 -233 c-11 -39 -19 -53 -25 -44 -4 7 -5
16 -1 19 5 3 14 24 22 48 20 62 24 44 4 -23z"/>
<path d="M6637 3088 c-8 -18 -18 -44 -22 -58 -4 -14 -43 -95 -87 -181 -68
-136 -225 -379 -301 -470 -12 -14 -6 -9 13 12 57 59 206 273 260 375 28 52 53
94 56 94 2 0 -8 -30 -22 -67 -28 -76 -90 -193 -170 -326 -30 -49 -50 -85 -44
-82 5 3 29 38 52 78 23 40 45 74 48 77 31 26 124 236 189 424 49 142 61 194
28 124z"/>
<path d="M6820 2968 c-15 -53 -154 -323 -203 -398 -75 -112 -195 -278 -236
-326 -14 -16 -8 -11 15 12 79 81 223 295 342 504 17 30 32 52 32 47 0 -17 -76
-199 -122 -292 -27 -55 -45 -95 -40 -90 26 25 116 227 176 393 72 198 70 192
58 192 -5 0 -15 -19 -22 -42z"/>
<path d="M6575 2380 c-9 -16 -13 -30 -11 -30 3 0 12 14 21 30 9 17 13 30 11
30 -3 0 -12 -13 -21 -30z"/>
<path d="M6274 2333 c-15 -20 -23 -33 -16 -29 13 8 56 66 49 66 -3 0 -17 -17
-33 -37z"/>
<path d="M6155 2298 l-40 -43 43 40 c39 36 47 45 39 45 -2 0 -21 -19 -42 -42z"/>
<path d="M6539 2318 c-7 -13 -19 -34 -27 -48 -14 -24 -13 -24 3 -5 20 24 48
75 41 75 -3 0 -11 -10 -17 -22z"/>
<path d="M6229 2273 c-13 -16 -12 -17 4 -4 16 13 21 21 13 21 -2 0 -10 -8 -17
-17z"/>
<path d="M6030 2163 l-85 -88 88 85 c48 46 87 86 87 87 0 8 -11 -3 -90 -84z"/>
<path d="M5180 2205 c-25 -13 -41 -24 -37 -25 11 0 87 39 87 45 0 7 0 7 -50
-20z"/>
<path d="M6169 2203 l-24 -28 28 24 c25 23 32 31 24 31 -2 0 -14 -12 -28 -27z"/>
<path d="M5505 2194 l-30 -26 33 22 c17 12 32 23 32 26 0 7 -4 5 -35 -22z"/>
<path d="M6314 2168 l-29 -33 33 29 c17 17 32 31 32 33 0 8 -8 1 -36 -29z"/>
<path d="M6396 2111 c-81 -97 -242 -251 -354 -338 -206 -162 -327 -231 -784
-452 -134 -65 -176 -91 -149 -91 40 0 393 152 548 235 215 116 461 308 630
491 99 106 189 221 181 230 -3 3 -35 -31 -72 -75z"/>
<path d="M5090 2165 c-14 -8 -20 -14 -15 -14 6 0 21 6 35 14 14 8 21 14 15 14
-5 0 -21 -6 -35 -14z"/>
<path d="M4963 2132 c-40 -20 -73 -40 -73 -44 0 -6 160 49 170 59 3 2 -9 1
-25 -2 -29 -7 -29 -7 -10 8 29 24 18 20 -62 -21z"/>
<path d="M5415 2139 c-27 -17 -54 -36 -60 -42 -11 -11 58 28 96 55 40 28 17
20 -36 -13z"/>
<path d="M6060 2083 l-85 -88 88 85 c48 46 87 86 87 87 0 8 -11 -3 -90 -84z"/>
<path d="M5657 2103 c-4 -3 -7 -11 -7 -17 0 -6 5 -5 12 2 6 6 9 14 7 17 -3 3
-9 2 -12 -2z"/>
<path d="M5724 2068 l-19 -23 23 19 c12 11 22 21 22 23 0 8 -8 2 -26 -19z"/>
<path d="M5614 2058 l-19 -23 23 19 c21 18 27 26 19 26 -2 0 -12 -10 -23 -22z"/>
<path d="M5222 2045 c-12 -9 -70 -45 -128 -80 -59 -36 -104 -65 -100 -65 13 0
131 63 134 71 2 5 9 6 14 3 7 -5 8 -2 3 6 -6 10 -4 12 9 7 11 -5 15 -3 10 5
-5 8 -2 9 9 5 10 -4 16 -2 14 5 -1 6 4 13 12 16 8 3 11 0 7 -7 -5 -7 -1 -8 10
-4 13 5 14 8 5 11 -10 3 -7 10 10 23 29 22 22 25 -9 4z"/>
<path d="M5569 2023 c-13 -16 -12 -17 4 -4 16 13 21 21 13 21 -2 0 -10 -8 -17
-17z"/>
<path d="M5859 2003 l-34 -38 38 34 c34 33 42 41 34 41 -2 0 -19 -17 -38 -37z"/>
<path d="M5515 1984 l-30 -26 33 22 c17 12 32 23 32 26 0 7 -4 5 -35 -22z"/>
<path d="M6115 1958 l-50 -53 53 50 c28 27 52 51 52 52 0 8 -9 -1 -55 -49z"/>
<path d="M5914 1948 l-29 -33 33 29 c17 17 32 31 32 33 0 8 -8 1 -36 -29z"/>
<path d="M5794 1948 l-19 -23 23 19 c12 11 22 21 22 23 0 8 -8 2 -26 -19z"/>
<path d="M5459 1943 c-13 -16 -12 -17 4 -4 16 13 21 21 13 21 -2 0 -10 -8 -17
-17z"/>
<path d="M5859 1903 c-13 -16 -12 -17 4 -4 16 13 21 21 13 21 -2 0 -10 -8 -17
-17z"/>
<path d="M5924 1778 l-19 -23 23 19 c12 11 22 21 22 23 0 8 -8 2 -26 -19z"/>
<path d="M5048 1688 c-16 -5 -28 -14 -28 -19 0 -8 54 14 69 27 7 7 -13 3 -41
-8z"/>
<path d="M5110 1479 c0 -5 5 -7 10 -4 6 3 10 8 10 11 0 2 -4 4 -10 4 -5 0 -10
-5 -10 -11z"/>
</g>
</svg>
